<svg width="50" height="50" viewBox="0 0 50 50" fill="none" xmlns="http://www.w3.org/2000/svg">
<path d="M29.9502 25H33.5502C33.8315 25 34.1127 24.775 34.1127 24.4375C34.1127 24.3813 34.1127 24.2687 34.0564 24.2125L27.8689 7.3375C27.7564 7.16875 27.5877 7 27.3627 7H23.7627C23.4814 7 23.2002 7.225 23.2002 7.5625C23.2002 7.61875 23.2002 7.675 23.2564 7.73125L29.5002 24.7188C29.5565 24.8875 29.7252 25 29.9502 25Z" fill="#0073FF"/>
<path d="M29.3309 43H32.9309C33.2121 43 33.4934 42.775 33.4934 42.4375C33.4934 42.3812 33.4934 42.325 33.4371 42.2688L20.6121 7.3375C20.5559 7.16875 20.3309 7 20.1059 7H16.5059C16.2246 7 15.9434 7.225 15.9434 7.5625C15.9434 7.61875 15.9434 7.675 15.9996 7.73125L28.8246 42.6625C28.8809 42.8875 29.1059 43 29.3309 43Z" fill="#0073FF"/>
<path d="M22.1871 43H25.7871C26.0684 43 26.2934 42.775 26.3496 42.4938C26.3496 42.4375 26.3496 42.325 26.2934 42.2688L20.0496 25.3375C19.9934 25.1125 19.7684 25 19.5434 25H15.8871C15.6059 25 15.3809 25.2812 15.3809 25.5625C15.3809 25.6188 15.3809 25.675 15.4371 25.7312L21.6246 42.6625C21.7934 42.8875 21.9621 43 22.1871 43Z" fill="#0073FF"/>
<path d="M30.3999 7.73125L33.3249 15.6625C33.3811 15.8875 33.6063 16 33.8313 16H37.3749C37.6561 16 37.9374 15.775 37.9374 15.4375C37.9374 15.3812 37.9374 15.325 37.8813 15.2688L34.9563 7.3375C34.8999 7.16875 34.7313 7 34.5063 7H30.9061C30.6249 7 30.3438 7.225 30.3438 7.5625C30.3438 7.61875 30.3436 7.675 30.3999 7.73125Z" fill="#0073FF"/>
<path d="M15.55 43H19.15C19.4313 43 19.7125 42.775 19.7125 42.4375C19.7125 42.3812 19.7125 42.325 19.6563 42.2688L16.7313 34.3375C16.675 34.1125 16.45 34 16.225 34H12.625C12.3438 34 12.0625 34.225 12.0625 34.5625C12.0625 34.6188 12.0625 34.675 12.1188 34.7312L15.0438 42.6625C15.1 42.8875 15.325 43 15.55 43Z" fill="#0073FF"/>
<path d="M29.9502 25H33.5502C33.8315 25 34.1127 24.775 34.1127 24.4375C34.1127 24.3813 34.1127 24.2687 34.0564 24.2125L27.8689 7.3375C27.7564 7.16875 27.5877 7 27.3627 7H23.7627C23.4814 7 23.2002 7.225 23.2002 7.5625C23.2002 7.61875 23.2002 7.675 23.2564 7.73125L29.5002 24.7188C29.5565 24.8875 29.7252 25 29.9502 25Z" fill="#0073FF"/>
<path d="M29.3309 43H32.9309C33.2121 43 33.4934 42.775 33.4934 42.4375C33.4934 42.3812 33.4934 42.325 33.4371 42.2688L20.6121 7.3375C20.5559 7.16875 20.3309 7 20.1059 7H16.5059C16.2246 7 15.9434 7.225 15.9434 7.5625C15.9434 7.61875 15.9434 7.675 15.9996 7.73125L28.8246 42.6625C28.8809 42.8875 29.1059 43 29.3309 43Z" fill="#0073FF"/>
<path d="M22.1871 43H25.7871C26.0684 43 26.2934 42.775 26.3496 42.4938C26.3496 42.4375 26.3496 42.325 26.2934 42.2688L20.0496 25.3375C19.9934 25.1125 19.7684 25 19.5434 25H15.8871C15.6059 25 15.3809 25.2812 15.3809 25.5625C15.3809 25.6188 15.3809 25.675 15.4371 25.7312L21.6246 42.6625C21.7934 42.8875 21.9621 43 22.1871 43Z" fill="#0073FF"/>
<path d="M30.3999 7.73125L33.3249 15.6625C33.3811 15.8875 33.6063 16 33.8313 16H37.3749C37.6561 16 37.9374 15.775 37.9374 15.4375C37.9374 15.3812 37.9374 15.325 37.8813 15.2688L34.9563 7.3375C34.8999 7.16875 34.7313 7 34.5063 7H30.9061C30.6249 7 30.3438 7.225 30.3438 7.5625C30.3438 7.61875 30.3436 7.675 30.3999 7.73125Z" fill="#0073FF"/>
<path d="M15.55 43H19.15C19.4313 43 19.7125 42.775 19.7125 42.4375C19.7125 42.3812 19.7125 42.325 19.6563 42.2688L16.7313 34.3375C16.675 34.1125 16.45 34 16.225 34H12.625C12.3438 34 12.0625 34.225 12.0625 34.5625C12.0625 34.6188 12.0625 34.675 12.1188 34.7312L15.0438 42.6625C15.1 42.8875 15.325 43 15.55 43Z" fill="#0073FF"/>
<path d="M29.9502 25H33.5502C33.8315 25 34.1127 24.775 34.1127 24.4375C34.1127 24.3813 34.1127 24.2687 34.0564 24.2125L27.8689 7.3375C27.7564 7.16875 27.5877 7 27.3627 7H23.7627C23.4814 7 23.2002 7.225 23.2002 7.5625C23.2002 7.61875 23.2002 7.675 23.2564 7.73125L29.5002 24.7188C29.5565 24.8875 29.7252 25 29.9502 25Z" fill="#0073FF"/>
<path d="M29.3309 43H32.9309C33.2121 43 33.4934 42.775 33.4934 42.4375C33.4934 42.3812 33.4934 42.325 33.4371 42.2688L20.6121 7.3375C20.5559 7.16875 20.3309 7 20.1059 7H16.5059C16.2246 7 15.9434 7.225 15.9434 7.5625C15.9434 7.61875 15.9434 7.675 15.9996 7.73125L28.8246 42.6625C28.8809 42.8875 29.1059 43 29.3309 43Z" fill="#0073FF"/>
<path d="M22.1871 43H25.7871C26.0684 43 26.2934 42.775 26.3496 42.4938C26.3496 42.4375 26.3496 42.325 26.2934 42.2688L20.0496 25.3375C19.9934 25.1125 19.7684 25 19.5434 25H15.8871C15.6059 25 15.3809 25.2812 15.3809 25.5625C15.3809 25.6188 15.3809 25.675 15.4371 25.7312L21.6246 42.6625C21.7934 42.8875 21.9621 43 22.1871 43Z" fill="#0073FF"/>
<path d="M30.3999 7.73125L33.3249 15.6625C33.3811 15.8875 33.6063 16 33.8313 16H37.3749C37.6561 16 37.9374 15.775 37.9374 15.4375C37.9374 15.3812 37.9374 15.325 37.8813 15.2688L34.9563 7.3375C34.8999 7.16875 34.7313 7 34.5063 7H30.9061C30.6249 7 30.3438 7.225 30.3438 7.5625C30.3438 7.61875 30.3436 7.675 30.3999 7.73125Z" fill="#0073FF"/>
<path d="M15.55 43H19.15C19.4313 43 19.7125 42.775 19.7125 42.4375C19.7125 42.3812 19.7125 42.325 19.6563 42.2688L16.7313 34.3375C16.675 34.1125 16.45 34 16.225 34H12.625C12.3438 34 12.0625 34.225 12.0625 34.5625C12.0625 34.6188 12.0625 34.675 12.1188 34.7312L15.0438 42.6625C15.1 42.8875 15.325 43 15.55 43Z" fill="#0073FF"/>
</svg>
