<svg width="55" height="22" viewBox="0 0 55 22" fill="none" xmlns="http://www.w3.org/2000/svg">
<g clip-path="url(#clip0_286_10120)">
<path d="M2.62354 2.32925C2.76655 1.65055 3.44305 1.1 4.1322 1.1H7.8788L4.76305 15.8527H1.01644C0.326744 15.8527 -0.116556 15.3026 0.026994 14.6234L2.62354 2.32925ZM15.1124 2.32925C15.2559 1.65055 15.9319 1.1 16.621 1.1H20.3677L17.2519 15.8527H13.5053C12.8156 15.8527 12.3723 15.3026 12.5158 14.6234L15.1124 2.32925ZM40.0907 2.32925C40.2337 1.65055 40.9091 1.1 41.5993 1.1H45.3459L42.2302 15.8527H38.483C37.7933 15.8527 37.3506 15.3026 37.4941 14.6234L40.0907 2.32925ZM21.6167 1.1H25.3633C26.053 1.1 26.4963 1.65 26.3528 2.32925L23.7562 14.6234C23.6132 15.3026 22.9373 15.8527 22.2476 15.8527H18.501L21.6167 1.1ZM46.595 1.1H50.3416C51.0313 1.1 51.4746 1.65 51.331 2.32925L48.7339 14.6234C48.5909 15.3026 47.9155 15.8527 47.2258 15.8527H43.4787L46.595 1.1ZM27.6018 2.32925C27.7448 1.65055 28.4202 1.1 29.1099 1.1H32.8571L29.7408 15.8527H25.9942C25.3045 15.8527 24.8612 15.3026 25.0053 14.6234L27.6013 2.32925H27.6018ZM34.1056 1.1H37.8527C38.5424 1.1 38.9852 1.65 38.8416 2.32925L34.9471 20.7708C34.803 21.4495 34.1276 22 33.4379 22H29.6907L34.1056 1.1ZM7.0505 10.9351H12.0461L11.2673 14.6234C11.1238 15.3026 10.4478 15.8527 9.7587 15.8527H6.01155L7.04995 10.9356L7.0505 10.9351ZM24.4861 17.0825H29.4812L28.4428 22H24.6962C24.0059 22 23.5632 21.45 23.7067 20.7708L24.4861 17.0825ZM38.0458 18.2259L37.4133 21.2212C37.3858 21.3499 37.3429 21.3851 37.212 21.3851H36.9243C36.7934 21.3851 36.7648 21.3499 36.7923 21.2212L37.4248 18.2259C37.4523 18.0978 37.4952 18.062 37.6261 18.062H37.9138C38.0447 18.062 38.0733 18.0978 38.0458 18.2259ZM38.8774 20.2466H38.8185C38.7558 20.2466 38.7338 20.2642 38.7212 20.3264L38.532 21.2212C38.5045 21.3499 38.461 21.3851 38.3307 21.3851H38.0425C37.9121 21.3851 37.8835 21.3499 37.9105 21.2212L38.543 18.2259C38.5705 18.0978 38.6145 18.062 38.7448 18.062H39.3388C40.023 18.062 40.2821 18.3056 40.1556 18.9035L40.05 19.4045C39.9235 20.0029 39.5616 20.2466 38.8774 20.2466ZM39.0512 18.7621L38.8862 19.5465C38.8724 19.6086 38.8867 19.6262 38.95 19.6262H39.0446C39.2646 19.6262 39.3828 19.5377 39.4307 19.3116L39.4967 18.997C39.5445 18.7715 39.4642 18.6824 39.2437 18.6824H39.1491C39.0864 18.6824 39.0644 18.7 39.0512 18.7621ZM41.1071 19.2451L41.5746 19.7593C41.8199 20.0249 41.854 20.1844 41.7913 20.4814L41.7748 20.5612C41.6565 21.1194 41.3749 21.4297 40.7221 21.4297C40.0698 21.4297 39.9086 21.1684 40.0593 20.4545L40.078 20.3665C40.1055 20.2378 40.149 20.202 40.2793 20.202H40.5851C40.716 20.202 40.7446 20.2378 40.7171 20.366L40.6759 20.5612C40.6385 20.7383 40.6957 20.8092 40.853 20.8092C41.0108 20.8092 41.0966 20.7433 41.1307 20.5838L41.1483 20.4991C41.1747 20.3748 41.1604 20.3132 41.0251 20.1669L40.5851 19.6928C40.3387 19.4315 40.3074 19.2803 40.3701 18.9833L40.3904 18.8865C40.5087 18.3282 40.7903 18.0174 41.4426 18.0174C42.0954 18.0174 42.2566 18.2793 42.1059 18.9926L42.0872 19.0812C42.0597 19.2099 42.0162 19.2451 41.8859 19.2451H41.5795C41.4492 19.2451 41.4206 19.2099 41.4475 19.0812L41.4888 18.8865C41.5262 18.7088 41.4695 18.6384 41.3117 18.6384C41.1544 18.6384 41.068 18.7044 41.0345 18.8639L41.0185 18.9393C40.991 19.068 41.0053 19.1301 41.1071 19.2451ZM43.7427 18.2259C43.7702 18.0978 43.8131 18.062 43.944 18.062H44.2316C44.3625 18.062 44.3911 18.0978 44.3636 18.2259L43.8928 20.4551C43.7421 21.1684 43.471 21.4297 42.8181 21.4297C42.1658 21.4297 42.0047 21.1684 42.1554 20.4545L42.6262 18.2259C42.6537 18.0978 42.6971 18.062 42.8275 18.062H43.1157C43.246 18.062 43.2746 18.0978 43.2477 18.2259L42.7543 20.5612C42.7169 20.7383 42.7785 20.8092 42.9496 20.8092C43.1157 20.8092 43.2119 20.7383 43.2493 20.5612L43.7427 18.2259ZM45.616 20.0294C45.6176 20.0651 45.6292 20.0734 45.6517 20.0734C45.6737 20.0734 45.6897 20.0651 45.7062 20.0294L46.4839 18.1775C46.5218 18.084 46.5669 18.062 46.6797 18.062H47.1164C47.2467 18.062 47.2753 18.0978 47.2484 18.2259L46.6159 21.2212C46.5884 21.3499 46.5444 21.3851 46.414 21.3851H46.2072C46.0769 21.3851 46.0477 21.3499 46.0752 21.2212L46.3788 19.7857C46.3871 19.7461 46.3799 19.7367 46.353 19.7367C46.3348 19.7367 46.3145 19.7461 46.3035 19.7769L45.6754 21.2394C45.6303 21.3455 45.5725 21.3851 45.4422 21.3851H45.3201C45.1848 21.3851 45.1441 21.3455 45.1441 21.2394L45.1287 19.7764C45.1259 19.7456 45.1188 19.7367 45.0962 19.7367C45.0693 19.7367 45.0583 19.7461 45.05 19.7857L44.747 21.2212C44.7195 21.3499 44.6766 21.3851 44.5457 21.3851H44.3389C44.208 21.3851 44.1794 21.3499 44.2069 21.2212L44.8394 18.2259C44.8669 18.0978 44.9103 18.062 45.0407 18.062H45.4147C45.572 18.062 45.6226 18.0978 45.6215 18.2529L45.6154 20.0294H45.616ZM55.0001 1.1C55.0001 1.70775 54.5106 2.2 53.9072 2.2C53.7632 2.19957 53.6207 2.17077 53.4879 2.11525C53.355 2.05973 53.2344 1.97857 53.1329 1.87642C53.0314 1.77427 52.951 1.65312 52.8964 1.5199C52.8417 1.38668 52.8139 1.24399 52.8144 1.1C52.8144 0.49225 53.3039 0 53.9072 0C54.5106 0 55.0001 0.49225 55.0001 1.1Z" fill="white"/>
</g>
<defs>
<clipPath id="clip0_286_10120">
<rect width="55" height="22" fill="white"/>
</clipPath>
</defs>
</svg>
